<?xml version="1.0" encoding="UTF-8" standalone="no"?>
<svg
   viewBox="0 0 50 50"
   width="500px"
   height="500px"
   version="1.1"
   id="svg1"
   sodipodi:docname="piper-logo.svg"
   inkscape:version="1.3 (0e150ed, 2023-07-21)"
   xmlns:inkscape="http://www.inkscape.org/namespaces/inkscape"
   xmlns:sodipodi="http://sodipodi.sourceforge.net/DTD/sodipodi-0.dtd"
   xmlns="http://www.w3.org/2000/svg"
   xmlns:svg="http://www.w3.org/2000/svg">
  <defs
     id="defs1" />
  <sodipodi:namedview
     id="namedview1"
     pagecolor="#ffffff"
     bordercolor="#666666"
     borderopacity="1.0"
     inkscape:showpageshadow="2"
     inkscape:pageopacity="0.0"
     inkscape:pagecheckerboard="0"
     inkscape:deskcolor="#d1d1d1"
     inkscape:zoom="0.472"
     inkscape:cx="248.94068"
     inkscape:cy="248.94068"
     inkscape:window-width="1312"
     inkscape:window-height="662"
     inkscape:window-x="47"
     inkscape:window-y="205"
     inkscape:window-maximized="0"
     inkscape:current-layer="svg1" />
  <path
     d="M 48 1 C 46.449219 3.570313 43.554688 10.160156 32.050781 13.890625 C 31.914063 13.128906 31.816406 12.265625 31.816406 11.285156 C 29.949219 11.285156 29.269531 9.640625 28.273438 9 C 27.3125 11.140625 25.886719 12.683594 24.730469 13.570313 C 22.839844 15.015625 21.035156 16.144531 20 17 C 24.480469 15.953125 26.058594 15.859375 28.273438 15.859375 C 30.488281 15.859375 33 17 33 17 C 33 17 32.585938 16.195313 32.246094 14.824219 C 37.085938 13.996094 46.265625 10.578125 48 1 Z M 28 18 C 26.296875 18 24.792969 18.082031 22.816406 18.40625 C 22.816406 18.414063 22.820313 18.414063 22.820313 18.421875 C 22.886719 19.144531 22.96875 20.042969 22.332031 20.84375 L 21.488281 21.894531 L 22.742188 22.394531 C 22.867188 22.445313 22.988281 22.488281 23.113281 22.527344 L 23.113281 22.546875 C 23.113281 23.953125 24.453125 24.199219 25.097656 24.316406 C 25.96875 24.476563 25.96875 24.53125 25.96875 24.859375 L 25.96875 25.792969 C 25.945313 26.140625 25.90625 26.496094 25.859375 26.851563 C 25.53125 27.542969 24.964844 28.4375 24.265625 29.214844 C 23.308594 27.667969 21.53125 24.8125 21.324219 24.527344 C 21.675781 24.304688 21.875 23.886719 21.777344 23.464844 C 21.691406 23.097656 21.414063 22.839844 21.078125 22.738281 C 20.761719 22.496094 20.273438 22 20 22 C 19.765625 22 18.871094 22.242188 18.5 22.332031 C 17.792969 22.5 18.039063 22.933594 18.257813 23.242188 L 16.933594 23.546875 C 15.980469 21.425781 15.5625 22.398438 14.769531 22.5 C 13.667969 22.699219 12.570313 22.898438 13.171875 24.097656 L 13.300781 24.378906 L 1.773438 27.027344 C 1.238281 27.148438 0.902344 27.6875 1.023438 28.222656 C 1.148438 28.757813 1.6875 29.097656 2.222656 28.972656 L 14.21875 26.21875 C 14.5625 26.59375 15.328125 26.9375 16.171875 28.199219 C 16.371094 28.597656 20.171875 34 21.171875 34 C 22.539063 34 23.882813 33.421875 25.03125 32.695313 L 25.003906 38.152344 L 33.277344 36.769531 C 33.582031 35.179688 34 32.53125 34 30 C 34 27.746094 33.070313 26.554688 32.238281 25.714844 C 37.789063 28.628906 35.296875 39.835938 40 46 C 41.1875 45.25 45.1875 42.875 48 41 C 42.398438 37.402344 41.492188 25.46875 31.019531 24.128906 C 30.914063 24.113281 30.4375 24.046875 30.4375 24.046875 L 30.4375 23.984375 C 30.4375 23.929688 30.4375 23.886719 30.441406 23.859375 C 30.488281 23.839844 30.550781 23.820313 30.597656 23.800781 C 31.214844 23.597656 32.363281 23.21875 32.660156 21.144531 L 32.933594 19.253906 L 31.363281 20.035156 C 31.285156 19.796875 31.210938 19.570313 31.140625 19.351563 C 31.019531 18.96875 30.902344 18.605469 30.765625 18.265625 C 30.003906 18.046875 28.839844 18 28 18 Z M 19.527344 25.003906 C 19.871094 25.695313 21.417969 29.164063 22.101563 30.769531 C 21.859375 30.847656 21.613281 30.902344 21.371094 30.902344 C 19.347656 29.0625 17.074219 26.800781 16.953125 25.59375 Z M 33.578125 38.75 L 25.160156 40.152344 L 26.132813 47 L 27 47 C 33.660156 47 36.269531 45.972656 36.375 45.925781 L 37.4375 45.496094 Z"
     id="path1"
     style="fill:#975aff;fill-opacity:1" />
</svg>
