<?xml version="1.0" encoding="UTF-8" standalone="no"?>
<!-- Created with Inkscape (http://www.inkscape.org/) -->

<svg
   version="1.1"
   id="svg1"
   width="623.80566"
   height="658.94537"
   viewBox="0 0 623.80565 658.94536"
   xmlns="http://www.w3.org/2000/svg"
   xmlns:svg="http://www.w3.org/2000/svg">
  <defs
     id="defs1">
    <clipPath
       clipPathUnits="userSpaceOnUse"
       id="clipPath64">
      <path
         d="M 0,2000 H 2000 V 0 H 0 Z"
         transform="translate(-893.71855,-1153.3133)"
         id="path64" />
    </clipPath>
    <clipPath
       clipPathUnits="userSpaceOnUse"
       id="clipPath66">
      <path
         d="M 0,2000 H 2000 V 0 H 0 Z"
         transform="translate(-846.0679,-1153.7694)"
         id="path66" />
    </clipPath>
  </defs>
  <g
     id="layer-MC0"
     transform="translate(-587.04603,-827.1584)">
    <path
       id="path63"
       d="m 0,0 c 0,-125.557 -101.727,-227.352 -227.284,-227.352 -84.039,0 -157.397,45.591 -196.78,113.409 -15.82,27.168 -26.099,58.006 -29.37,90.914 4.873,-2.27 10.346,-3.538 16.087,-3.538 4.138,0 8.143,0.668 11.948,1.87 10.48,-10.28 25.899,-16.821 43.187,-16.821 14.552,0 27.835,4.672 37.915,12.281 10.145,-7.609 23.362,-12.281 37.914,-12.281 17.355,0 32.841,6.608 43.387,16.888 3.805,-1.202 7.877,-1.937 12.149,-1.937 21.827,0 39.516,17.689 39.516,39.516 0,21.828 -17.689,39.583 -39.516,39.583 -5.674,0 -11.014,-1.202 -15.82,-3.337 -6.808,18.556 -24.564,31.906 -45.523,31.906 -12.349,0 -23.563,-4.672 -32.107,-12.214 -8.544,7.542 -19.758,12.214 -32.107,12.214 -20.827,0 -38.582,-13.217 -45.391,-31.773 -4.805,2.069 -10.012,3.204 -15.552,3.204 -4.005,0 -7.943,-0.667 -11.615,-1.802 2.398,0.741 10.664,34.172 12.55,38.576 5.527,12.908 12.261,25.296 20.076,36.961 15.914,23.755 36.312,44.459 59.824,60.73 C -229.808,274.681 -48.905,208.422 -8.141,60.485 -2.718,40.807 0,20.409 0,0"
       style="fill:#f19122;fill-opacity:1;fill-rule:nonzero;stroke:none"
       transform="matrix(1.3333333,0,0,-1.3333333,1191.6247,1128.9157)"
       clip-path="url(#clipPath64)" />
    <path
       id="path65"
       d="m 0,0 c 0,0 -14.611,41.457 -57.404,37.396 -23.819,-2.262 -39.636,-25.691 -48.978,-46.023 -6.868,-14.948 -10.525,-31.08 -12.345,-47.429 -0.842,-7.578 -2.053,-15.236 -3.537,-22.933 -28.645,16.808 -74.639,29.699 -142.897,10.854 -131.946,-36.43 -193.447,18.017 -193.447,18.017 0,0 39.57141,-185.50133 249.77641,-188.90933 -5.79874,-28.36128 -44.01994,-35.06197 -44.01994,-35.06197 C 24.026698,-309.58404 -20.085,-65.15 -20.833,-38.266 -21.58,-11.381 23.333,-13.699 23.333,-13.699 15.433,-0.084 0,0 0,0"
       style="fill:#10254e;fill-opacity:1;fill-rule:nonzero;stroke:none"
       transform="matrix(1.3065048,-0.26612589,-0.26612589,-1.3065048,1176.7213,1060.7144)"
       clip-path="url(#clipPath66)" />
  </g>
</svg>
