<?xml version="1.0" encoding="UTF-8" standalone="no"?>
<!-- Created with Inkscape (http://www.inkscape.org/) -->

<svg
   version="1.1"
   id="svg1"
   width="1618.8799"
   height="1014.9169"
   viewBox="0 0 1618.8799 1014.9169"
   xmlns="http://www.w3.org/2000/svg"
   xmlns:svg="http://www.w3.org/2000/svg">
  <defs
     id="defs1">
    <clipPath
       clipPathUnits="userSpaceOnUse"
       id="clipPath2">
      <path
         d="M 0,2000 H 2000 V 0 H 0 Z"
         transform="translate(-978.59162,-1254.66)"
         id="path2" />
    </clipPath>
    <clipPath
       clipPathUnits="userSpaceOnUse"
       id="clipPath4">
      <path
         d="M 0,2000 H 2000 V 0 H 0 Z"
         transform="translate(-1147.0455,-1328.2152)"
         id="path4" />
    </clipPath>
    <clipPath
       clipPathUnits="userSpaceOnUse"
       id="clipPath6">
      <path
         d="M 0,2000 H 2000 V 0 H 0 Z"
         transform="translate(-1147.0455,-1380.5938)"
         id="path6" />
    </clipPath>
    <clipPath
       clipPathUnits="userSpaceOnUse"
       id="clipPath8">
      <path
         d="M 0,2000 H 2000 V 0 H 0 Z"
         transform="translate(-1316.3655,-1234.6179)"
         id="path8" />
    </clipPath>
    <clipPath
       clipPathUnits="userSpaceOnUse"
       id="clipPath10">
      <path
         d="M 0,2000 H 2000 V 0 H 0 Z"
         transform="translate(-1389.7588,-1270.4215)"
         id="path10" />
    </clipPath>
    <clipPath
       clipPathUnits="userSpaceOnUse"
       id="clipPath12">
      <path
         d="M 0,2000 H 2000 V 0 H 0 Z"
         transform="translate(-1538.767,-1193.6687)"
         id="path12" />
    </clipPath>
    <clipPath
       clipPathUnits="userSpaceOnUse"
       id="clipPath14">
      <path
         d="M 0,2000 H 2000 V 0 H 0 Z"
         transform="translate(-1147.0455,-1141.4)"
         id="path14" />
    </clipPath>
    <clipPath
       clipPathUnits="userSpaceOnUse"
       id="clipPath16">
      <path
         d="M 0,2000 H 2000 V 0 H 0 Z"
         transform="translate(-1223.526,-1067.8989)"
         id="path16" />
    </clipPath>
    <clipPath
       clipPathUnits="userSpaceOnUse"
       id="clipPath18">
      <path
         d="M 0,2000 H 2000 V 0 H 0 Z"
         transform="translate(-1389.7588,-1083.6063)"
         id="path18" />
    </clipPath>
    <clipPath
       clipPathUnits="userSpaceOnUse"
       id="clipPath20">
      <path
         d="M 0,2000 H 2000 V 0 H 0 Z"
         transform="translate(-1606.527,-1140.2085)"
         id="path20" />
    </clipPath>
    <clipPath
       clipPathUnits="userSpaceOnUse"
       id="clipPath22">
      <path
         d="M 0,2000 H 2000 V 0 H 0 Z"
         transform="translate(-1071.4305,-861.09585)"
         id="path22" />
    </clipPath>
    <clipPath
       clipPathUnits="userSpaceOnUse"
       id="clipPath24">
      <path
         d="M 0,2000 H 2000 V 0 H 0 Z"
         transform="translate(-1147.0455,-954.639)"
         id="path24" />
    </clipPath>
    <clipPath
       clipPathUnits="userSpaceOnUse"
       id="clipPath26">
      <path
         d="M 0,2000 H 2000 V 0 H 0 Z"
         transform="translate(-1389.7588,-896.84535)"
         id="path26" />
    </clipPath>
    <clipPath
       clipPathUnits="userSpaceOnUse"
       id="clipPath28">
      <path
         d="M 0,2000 H 2000 V 0 H 0 Z"
         transform="translate(-1606.527,-953.44755)"
         id="path28" />
    </clipPath>
    <clipPath
       clipPathUnits="userSpaceOnUse"
       id="clipPath30">
      <path
         d="M 0,2000 H 2000 V 0 H 0 Z"
         transform="translate(-467.23201,-702.80962)"
         id="path30" />
    </clipPath>
    <clipPath
       clipPathUnits="userSpaceOnUse"
       id="clipPath32">
      <path
         d="M 0,2000 H 2000 V 0 H 0 Z"
         transform="translate(-529.75961,-657.32452)"
         id="path32" />
    </clipPath>
    <clipPath
       clipPathUnits="userSpaceOnUse"
       id="clipPath34">
      <path
         d="M 0,2000 H 2000 V 0 H 0 Z"
         transform="translate(-616.38622,-701.67239)"
         id="path34" />
    </clipPath>
    <clipPath
       clipPathUnits="userSpaceOnUse"
       id="clipPath36">
      <path
         d="M 0,2000 H 2000 V 0 H 0 Z"
         transform="translate(-668.43992,-677.26274)"
         id="path36" />
    </clipPath>
    <clipPath
       clipPathUnits="userSpaceOnUse"
       id="clipPath38">
      <path
         d="M 0,2000 H 2000 V 0 H 0 Z"
         transform="translate(-779.16549,-656.40914)"
         id="path38" />
    </clipPath>
    <clipPath
       clipPathUnits="userSpaceOnUse"
       id="clipPath40">
      <path
         d="M 0,2000 H 2000 V 0 H 0 Z"
         transform="translate(-815.08112,-702.80962)"
         id="path40" />
    </clipPath>
    <clipPath
       clipPathUnits="userSpaceOnUse"
       id="clipPath42">
      <path
         d="M 0,2000 H 2000 V 0 H 0 Z"
         transform="translate(-815.08112,-725.75482)"
         id="path42" />
    </clipPath>
    <clipPath
       clipPathUnits="userSpaceOnUse"
       id="clipPath44">
      <path
         d="M 0,2000 H 2000 V 0 H 0 Z"
         transform="translate(-898.71752,-701.98859)"
         id="path44" />
    </clipPath>
    <clipPath
       clipPathUnits="userSpaceOnUse"
       id="clipPath46">
      <path
         d="M 0,2000 H 2000 V 0 H 0 Z"
         transform="translate(-949.09585,-692.59094)"
         id="path46" />
    </clipPath>
    <clipPath
       clipPathUnits="userSpaceOnUse"
       id="clipPath48">
      <path
         d="M 0,2000 H 2000 V 0 H 0 Z"
         transform="translate(-1084.7526,-701.67239)"
         id="path48" />
    </clipPath>
    <clipPath
       clipPathUnits="userSpaceOnUse"
       id="clipPath50">
      <path
         d="M 0,2000 H 2000 V 0 H 0 Z"
         transform="translate(-1133.866,-692.59094)"
         id="path50" />
    </clipPath>
    <clipPath
       clipPathUnits="userSpaceOnUse"
       id="clipPath52">
      <path
         d="M 0,2000 H 2000 V 0 H 0 Z"
         transform="translate(-1247.4321,-703.33109)"
         id="path52" />
    </clipPath>
    <clipPath
       clipPathUnits="userSpaceOnUse"
       id="clipPath54">
      <path
         d="M 0,2000 H 2000 V 0 H 0 Z"
         transform="translate(-1334.458,-657.32452)"
         id="path54" />
    </clipPath>
    <clipPath
       clipPathUnits="userSpaceOnUse"
       id="clipPath56">
      <path
         d="M 0,2000 H 2000 V 0 H 0 Z"
         transform="translate(-1408.4361,-656.40914)"
         id="path56" />
    </clipPath>
    <clipPath
       clipPathUnits="userSpaceOnUse"
       id="clipPath58">
      <path
         d="M 0,2000 H 2000 V 0 H 0 Z"
         transform="translate(-1465.527,-692.59094)"
         id="path58" />
    </clipPath>
    <clipPath
       clipPathUnits="userSpaceOnUse"
       id="clipPath60">
      <path
         d="M 0,2000 H 2000 V 0 H 0 Z"
         transform="translate(-1535.4885,-656.40914)"
         id="path60" />
    </clipPath>
    <clipPath
       clipPathUnits="userSpaceOnUse"
       id="clipPath62">
      <path
         d="M 0,2000 H 2000 V 0 H 0 Z"
         transform="translate(-1608.8173,-702.21614)"
         id="path62" />
    </clipPath>
    <clipPath
       clipPathUnits="userSpaceOnUse"
       id="clipPath64">
      <path
         d="M 0,2000 H 2000 V 0 H 0 Z"
         transform="translate(-893.71855,-1153.3133)"
         id="path64" />
    </clipPath>
    <clipPath
       clipPathUnits="userSpaceOnUse"
       id="clipPath66">
      <path
         d="M 0,2000 H 2000 V 0 H 0 Z"
         transform="translate(-846.0679,-1153.7694)"
         id="path66" />
    </clipPath>
  </defs>
  <g
     id="layer-MC0"
     transform="translate(-531.17335,-825.87495)">
    <path
       id="path1"
       d="m 0,0 c -0.163,1.299 -0.271,3.358 -0.271,6.174 0,9.642 2.167,18.362 6.554,26.162 4.333,7.8 10.292,13.921 17.82,18.47 7.53,4.496 15.979,6.771 25.35,6.771 9.317,0 17.82,-2.275 25.404,-6.771 7.636,-4.549 13.649,-10.67 17.982,-18.47 4.333,-7.8 6.5,-16.52 6.5,-26.162 0,-9.696 -2.167,-18.417 -6.5,-26.216 -4.333,-7.8 -10.346,-13.867 -17.982,-18.307 -7.584,-4.442 -16.087,-6.662 -25.404,-6.662 -13,0 -23.996,4.116 -33.095,12.295 C 7.259,-24.483 1.896,-14.029 0.217,-1.246 0.217,-0.759 0.163,-0.325 0,0 m 6.283,-154.426 c 4.333,7.801 10.292,13.921 17.82,18.471 7.53,4.496 15.979,6.716 25.35,6.716 9.317,0 17.82,-2.22 25.404,-6.716 7.636,-4.55 13.649,-10.67 17.982,-18.471 4.333,-7.799 6.5,-16.519 6.5,-26.161 0,-9.696 -2.167,-18.417 -6.5,-26.216 -4.333,-7.8 -10.346,-13.92 -17.982,-18.307 -7.584,-4.442 -16.087,-6.663 -25.404,-6.663 -13,0 -23.996,4.117 -33.095,12.296 -9.099,8.233 -14.462,18.687 -16.141,31.47 0,0.487 -0.054,0.921 -0.217,1.246 -0.163,1.298 -0.271,3.357 -0.271,6.174 0,2.546 0.163,5.037 0.488,7.42 0.812,6.771 2.817,13 6.066,18.741 m 15.871,98.96 c 8.828,-4.495 18.578,-6.771 29.249,-6.771 12.458,0 23.724,3.034 33.798,8.992 10.076,6.012 18.038,14.192 23.887,24.591 5.796,10.4 8.721,22.045 8.721,34.828 0,12.784 -3.034,24.429 -8.991,34.882 -6.013,10.509 -14.192,18.742 -24.591,24.754 -10.4,5.959 -21.991,8.937 -34.774,8.937 -12.837,0 -24.429,-2.978 -34.829,-8.937 C 4.225,59.798 -3.954,51.565 -9.966,41.056 -15.924,30.603 -18.958,18.958 -18.958,6.174 V -51.62 c 0,-0.974 0.109,-1.733 0.271,-2.221 v -120.68 c -0.217,-2.003 -0.271,-4.007 -0.271,-6.066 v -57.795 c 0,-1.029 0.109,-1.732 0.271,-2.22 v -55.086 c 0,-2.816 0.866,-5.091 2.6,-6.879 1.68,-1.842 3.954,-2.708 6.717,-2.708 2.816,0 5.091,0.866 6.933,2.708 1.787,1.788 2.654,4.063 2.654,6.879 v 72.04 c 5.742,-7.855 13.053,-14.083 21.937,-18.579 8.828,-4.495 18.578,-6.771 29.249,-6.771 12.458,0 23.724,3.034 33.798,8.992 10.076,6.012 18.038,14.191 23.887,24.591 5.796,10.4 8.721,21.992 8.721,34.828 0,12.784 -3.034,24.429 -8.991,34.882 -6.013,10.509 -14.192,18.741 -24.591,24.754 -10.4,5.959 -21.991,8.937 -34.774,8.937 -12.837,0 -24.429,-2.978 -34.829,-8.937 -5.416,-3.142 -10.236,-6.879 -14.407,-11.213 v 95.277 C 5.959,-44.742 13.27,-50.97 22.154,-55.466"
       style="fill:#10254e;fill-opacity:1;fill-rule:nonzero;stroke:none"
       transform="matrix(1.3333333,0,0,-1.3333333,1304.7888,993.78667)"
       clip-path="url(#clipPath2)" />
    <path
       id="path3"
       d="M 0,0 C -2.817,0 -5.092,-0.92 -6.879,-2.708 -8.721,-4.55 -9.587,-6.825 -9.587,-9.587 v -115.372 c 0,-2.761 0.866,-5.091 2.708,-6.879 1.787,-1.787 4.062,-2.709 6.879,-2.709 2.763,0 5.037,0.922 6.771,2.709 1.678,1.788 2.545,4.118 2.545,6.879 V -9.587 c 0,2.762 -0.867,5.037 -2.545,6.879 C 5.037,-0.92 2.763,0 0,0"
       style="fill:#10254e;fill-opacity:1;fill-rule:nonzero;stroke:none"
       transform="matrix(1.3333333,0,0,-1.3333333,1529.3939,895.71307)"
       clip-path="url(#clipPath4)" />
    <path
       id="path5"
       d="m 0,0 c -3.792,0 -6.987,-1.246 -9.587,-3.684 -2.654,-2.492 -3.954,-5.686 -3.954,-9.587 0,-3.792 1.3,-6.988 3.845,-9.641 2.492,-2.599 5.688,-3.901 9.425,-3.901 3.791,0 6.987,1.302 9.587,3.901 2.654,2.653 3.954,5.849 3.954,9.641 0,3.901 -1.3,7.095 -3.954,9.587 C 6.716,-1.246 3.574,0 0,0"
       style="fill:#f19122;fill-opacity:1;fill-rule:nonzero;stroke:none"
       transform="matrix(1.3333333,0,0,-1.3333333,1529.3939,825.87493)"
       clip-path="url(#clipPath6)" />
    <path
       id="path7"
       d="m 0,0 c -4.333,-7.8 -10.346,-13.867 -17.983,-18.307 -7.583,-4.442 -16.087,-6.662 -25.457,-6.662 -12.947,0 -23.942,4.116 -33.042,12.295 -9.099,8.233 -14.461,18.687 -16.141,31.47 0,0.487 -0.054,0.921 -0.217,1.246 -0.162,1.299 -0.27,3.358 -0.27,6.174 0,9.642 2.167,18.362 6.554,26.162 4.332,7.8 10.237,13.921 17.82,18.47 7.529,4.496 15.979,6.771 25.296,6.771 9.37,0 17.874,-2.275 25.457,-6.771 C -10.346,66.299 -4.333,60.178 0,52.378 4.333,44.578 6.5,35.858 6.5,26.216 6.5,16.521 4.333,7.799 0,0 m -8.613,85.852 c -10.399,5.959 -22.045,8.937 -34.827,8.937 -12.784,0 -24.375,-2.978 -34.775,-8.937 -10.4,-6.011 -18.633,-14.245 -24.591,-24.754 -6.012,-10.453 -8.991,-22.098 -8.991,-34.882 v -57.793 c 0,-0.975 0.108,-1.734 0.271,-2.222 v -55.085 c 0,-2.817 0.866,-5.092 2.545,-6.88 1.734,-1.842 4.008,-2.708 6.771,-2.708 2.817,0 5.091,0.866 6.879,2.708 1.842,1.788 2.708,4.063 2.708,6.88 v 72.039 c 5.742,-7.855 13.054,-14.083 21.883,-18.579 8.883,-4.495 18.633,-6.771 29.303,-6.771 12.458,0 23.725,3.034 33.799,8.992 10.075,6.012 18.037,14.192 23.833,24.592 5.849,10.399 8.774,22.044 8.774,34.827 0,12.784 -3.032,24.429 -8.99,34.882 C 9.966,71.607 1.787,79.841 -8.613,85.852"
       style="fill:#10254e;fill-opacity:1;fill-rule:nonzero;stroke:none"
       transform="matrix(1.3333333,0,0,-1.3333333,1755.154,1020.5095)"
       clip-path="url(#clipPath8)" />
    <path
       id="path9"
       d="m 0,0 c 1.787,12.62 6.771,22.749 15.003,30.496 8.179,7.691 18.526,11.536 30.983,11.536 12.296,0 22.37,-3.845 30.224,-11.536 C 84.118,22.749 88.668,12.62 89.968,0 Z m 78.215,50.535 c -9.371,5.634 -20.096,8.45 -32.229,8.45 -12.457,0 -23.562,-2.869 -33.312,-8.72 -9.75,-5.796 -17.386,-13.92 -22.911,-24.32 -5.471,-10.453 -8.233,-22.262 -8.233,-35.532 0,-13.162 2.925,-24.915 8.721,-35.316 5.849,-10.399 13.919,-18.524 24.265,-24.32 10.291,-5.85 22.045,-8.775 35.154,-8.775 7.691,0 15.707,1.518 24.103,4.55 8.341,3.088 15.221,6.879 20.637,11.484 1.841,1.625 2.708,3.52 2.708,5.632 0,2.438 -1.083,4.658 -3.196,6.662 -1.787,1.301 -3.574,1.95 -5.417,1.95 -2.274,0 -4.495,-0.812 -6.607,-2.437 -3.629,-3.142 -8.396,-5.742 -14.408,-7.799 -5.959,-2.005 -11.917,-3.034 -17.82,-3.034 -13.759,0 -25.242,4.171 -34.45,12.513 -9.154,8.394 -14.407,19.283 -15.707,32.716 h 99.338 c 2.6,0 4.767,0.757 6.392,2.328 1.625,1.571 2.437,3.683 2.437,6.283 0,12.783 -2.545,24.157 -7.745,34.178 -5.146,10.021 -12.404,17.821 -21.72,23.507"
       style="fill:#10254e;fill-opacity:1;fill-rule:nonzero;stroke:none"
       transform="matrix(1.3333333,0,0,-1.3333333,1853.0117,972.77133)"
       clip-path="url(#clipPath10)" />
    <path
       id="path11"
       d="M 0,0 C 2.979,0 5.254,0.813 6.878,2.493 8.504,4.118 9.37,6.392 9.37,9.372 v 73.502 c 0,10.508 3.847,19.011 11.646,25.565 7.8,6.555 17.821,9.858 30.116,9.858 2.654,0 4.603,-0.108 5.903,-0.271 3.63,-0.324 6.176,-0.487 7.638,-0.487 2.492,0 4.387,0.434 5.795,1.246 1.408,0.812 2.384,2.383 3.088,4.658 0.163,0.487 0.217,1.245 0.217,2.221 0,3.303 -2.004,5.85 -6.013,7.637 -4.008,1.788 -9.479,2.708 -16.357,2.708 -8.504,0 -16.467,-1.895 -23.833,-5.687 -7.421,-3.738 -13.487,-9.1 -18.2,-15.979 v 10.833 c 0,2.979 -0.866,5.254 -2.492,6.879 -1.624,1.625 -3.899,2.492 -6.878,2.492 -2.925,0 -5.255,-0.867 -6.879,-2.492 -1.625,-1.625 -2.438,-3.9 -2.438,-6.879 V 9.372 c 0,-2.98 0.813,-5.254 2.438,-6.879 C -5.255,0.813 -2.925,0 0,0"
       style="fill:#10254e;fill-opacity:1;fill-rule:nonzero;stroke:none"
       transform="matrix(1.3333333,0,0,-1.3333333,2051.6893,1075.1084)"
       clip-path="url(#clipPath12)" />
    <path
       id="path13"
       d="m 0,0 c -2.817,0 -5.092,-0.866 -6.879,-2.708 -1.842,-1.788 -2.708,-4.063 -2.708,-6.879 v -115.318 c 0,-2.761 0.866,-5.091 2.708,-6.879 1.787,-1.787 4.062,-2.708 6.879,-2.708 2.763,0 5.037,0.921 6.771,2.708 1.678,1.788 2.545,4.118 2.545,6.879 V -9.587 c 0,2.816 -0.867,5.091 -2.545,6.879 C 5.037,-0.866 2.763,0 0,0"
       style="fill:#10254e;fill-opacity:1;fill-rule:nonzero;stroke:none"
       transform="matrix(1.3333333,0,0,-1.3333333,1529.3939,1144.8)"
       clip-path="url(#clipPath14)" />
    <path
       id="path15"
       d="m 0,0 c -0.163,1.299 -0.271,3.358 -0.271,6.174 0,9.642 2.167,18.362 6.554,26.161 4.333,7.801 10.238,13.921 17.821,18.471 7.529,4.496 15.978,6.717 25.295,6.717 9.371,0 17.874,-2.221 25.457,-6.717 7.637,-4.55 13.65,-10.67 17.984,-18.471 4.332,-7.799 6.499,-16.519 6.499,-26.161 0,-9.695 -2.167,-18.417 -6.499,-26.216 -4.334,-7.8 -10.347,-13.92 -17.984,-18.307 -7.583,-4.442 -16.086,-6.662 -25.457,-6.662 -12.946,0 -23.941,4.116 -33.041,12.295 C 7.259,-24.483 1.896,-14.029 0.217,-1.246 0.217,-0.759 0.163,-0.325 0,0 m 6.283,-154.426 c 4.333,7.801 10.238,13.921 17.821,18.417 7.529,4.55 15.978,6.771 25.295,6.771 9.371,0 17.874,-2.221 25.457,-6.771 7.637,-4.496 13.65,-10.616 17.984,-18.417 4.332,-7.799 6.499,-16.519 6.499,-26.215 0,-9.642 -2.167,-18.363 -6.499,-26.162 -4.334,-7.8 -10.347,-13.92 -17.984,-18.307 -7.583,-4.442 -16.086,-6.663 -25.457,-6.663 -12.946,0 -23.941,4.116 -33.041,12.296 -9.099,8.178 -14.462,18.687 -16.141,31.469 0,0.488 -0.054,0.922 -0.217,1.247 -0.163,1.299 -0.271,3.358 -0.271,6.12 0,2.546 0.163,5.037 0.488,7.474 0.812,6.771 2.817,13.001 6.066,18.741 m 15.817,98.96 c 8.882,-4.495 18.632,-6.771 29.303,-6.771 12.458,0 23.725,3.034 33.799,8.992 10.075,6.012 18.037,14.191 23.833,24.591 5.849,10.4 8.774,21.992 8.774,34.828 0,12.784 -3.033,24.429 -8.991,34.882 C 102.805,51.565 94.626,59.797 84.227,65.81 73.828,71.769 62.181,74.747 49.399,74.747 36.616,74.747 25.025,71.769 14.625,65.81 4.225,59.797 -4.008,51.565 -9.966,41.056 -15.978,30.603 -18.958,18.958 -18.958,6.174 v -57.795 c 0,-1.029 0.109,-1.732 0.271,-2.22 v -120.733 c -0.217,-2.005 -0.271,-4.009 -0.271,-6.067 v -57.794 c 0,-0.976 0.109,-1.679 0.271,-2.221 v -55.032 c 0,-2.816 0.866,-5.092 2.546,-6.933 1.734,-1.788 4.008,-2.654 6.771,-2.654 2.816,0 5.091,0.866 6.879,2.654 1.842,1.841 2.708,4.117 2.708,6.933 v 68.736 3.304 c 5.742,-7.855 13.054,-14.083 21.883,-18.579 8.882,-4.495 18.632,-6.771 29.303,-6.771 12.458,0 23.725,2.979 33.799,8.992 10.075,5.958 18.037,14.191 23.833,24.591 5.849,10.4 8.774,21.99 8.774,34.774 0,12.782 -3.033,24.428 -8.991,34.936 -6.013,10.508 -14.192,18.741 -24.591,24.7 -10.399,6.013 -22.046,8.991 -34.828,8.991 -12.783,0 -24.374,-2.978 -34.774,-8.991 -5.417,-3.088 -10.183,-6.771 -14.408,-11.104 v 95.222 C 5.959,-44.742 13.271,-50.97 22.1,-55.466"
       style="fill:#10254e;fill-opacity:1;fill-rule:nonzero;stroke:none"
       transform="matrix(1.3333333,0,0,-1.3333333,1631.3679,1242.8015)"
       clip-path="url(#clipPath16)" />
    <path
       id="path17"
       d="m 0,0 c 1.787,12.674 6.771,22.803 15.003,30.548 8.179,7.693 18.526,11.538 30.983,11.538 12.296,0 22.37,-3.845 30.224,-11.538 C 84.118,22.803 88.668,12.674 89.968,0 Z M 78.215,50.536 C 68.844,56.223 58.119,59.039 45.986,59.039 33.529,59.039 22.424,56.114 12.674,50.32 2.924,44.523 -4.712,36.399 -10.237,26 -15.708,15.546 -18.47,3.737 -18.47,-9.533 c 0,-13.162 2.925,-24.917 8.721,-35.316 5.849,-10.399 13.919,-18.524 24.265,-24.32 10.291,-5.85 22.045,-8.775 35.154,-8.775 7.691,0 15.707,1.517 24.103,4.55 8.341,3.034 15.221,6.879 20.637,11.429 1.841,1.68 2.708,3.521 2.708,5.687 0,2.438 -1.083,4.658 -3.196,6.609 -1.787,1.354 -3.574,2.003 -5.417,2.003 -2.274,0 -4.495,-0.812 -6.607,-2.491 -3.629,-3.088 -8.396,-5.687 -14.408,-7.745 -5.959,-2.059 -11.917,-3.034 -17.82,-3.034 -13.759,0 -25.242,4.171 -34.45,12.513 -9.154,8.341 -14.407,19.283 -15.707,32.716 h 99.338 c 2.6,0 4.767,0.757 6.392,2.328 1.625,1.57 2.437,3.629 2.437,6.283 0,12.784 -2.545,24.157 -7.745,34.179 -5.146,10.021 -12.404,17.82 -21.72,23.453"
       style="fill:#10254e;fill-opacity:1;fill-rule:nonzero;stroke:none"
       transform="matrix(1.3333333,0,0,-1.3333333,1853.0117,1221.8583)"
       clip-path="url(#clipPath18)" />
    <path
       id="path19"
       d="m 0,0 c -4.008,1.788 -9.479,2.708 -16.357,2.708 -8.504,0 -16.467,-1.895 -23.833,-5.687 -7.421,-3.737 -13.487,-9.1 -18.2,-15.979 v 10.833 c 0,2.925 -0.866,5.254 -2.491,6.879 -1.625,1.626 -3.9,2.438 -6.879,2.438 -2.925,0 -5.254,-0.812 -6.879,-2.438 -1.625,-1.625 -2.438,-3.954 -2.438,-6.879 V -123.93 c 0,-2.978 0.813,-5.253 2.438,-6.932 1.625,-1.625 3.954,-2.439 6.879,-2.439 2.979,0 5.254,0.814 6.879,2.439 1.625,1.679 2.491,3.954 2.491,6.932 v 73.502 c 0,10.509 3.847,19.012 11.646,25.566 7.8,6.554 17.821,9.858 30.116,9.858 2.654,0 4.603,-0.108 5.903,-0.271 3.63,-0.325 6.176,-0.486 7.639,-0.486 2.491,0 4.387,0.433 5.794,1.245 1.409,0.812 2.384,2.383 3.088,4.658 0.163,0.488 0.217,1.245 0.217,2.221 C 6.013,-4.333 4.009,-1.842 0,0"
       style="fill:#10254e;fill-opacity:1;fill-rule:nonzero;stroke:none"
       transform="matrix(1.3333333,0,0,-1.3333333,2142.0359,1146.3887)"
       clip-path="url(#clipPath20)" />
    <path
       id="path21"
       d="m 0,0 c -4.333,-7.799 -10.346,-13.919 -17.982,-18.307 -7.584,-4.442 -16.087,-6.662 -25.404,-6.662 -13,0 -23.996,4.115 -33.095,12.295 -9.099,8.178 -14.462,18.687 -16.141,31.469 0,0.488 -0.054,0.922 -0.217,1.247 -0.163,1.299 -0.271,3.358 -0.271,6.12 0,9.696 2.167,18.416 6.554,26.215 4.333,7.801 10.292,13.921 17.82,18.417 7.53,4.55 15.979,6.771 25.35,6.771 9.317,0 17.82,-2.221 25.404,-6.771 C -10.346,66.298 -4.333,60.178 0,52.377 4.333,44.578 6.5,35.858 6.5,26.162 6.5,16.521 4.333,7.799 0,0 m -8.612,85.798 c -10.4,6.013 -21.991,8.991 -34.774,8.991 -12.837,0 -24.429,-2.978 -34.829,-8.991 -10.399,-5.959 -18.578,-14.192 -24.59,-24.7 -5.958,-10.507 -8.992,-22.154 -8.992,-34.936 v -57.794 c 0,-0.975 0.109,-1.679 0.271,-2.221 v -55.031 c 0,-2.817 0.867,-5.093 2.6,-6.934 1.68,-1.788 3.954,-2.654 6.717,-2.654 2.816,0 5.091,0.866 6.933,2.654 1.787,1.841 2.654,4.117 2.654,6.934 v 72.039 c 5.742,-7.855 13.053,-14.083 21.937,-18.579 8.828,-4.495 18.578,-6.771 29.249,-6.771 12.458,0 23.724,2.98 33.799,8.992 10.075,5.958 18.037,14.191 23.887,24.592 5.795,10.399 8.72,21.99 8.72,34.773 0,12.782 -3.033,24.429 -8.991,34.936 -6.013,10.508 -14.192,18.741 -24.591,24.7"
       style="fill:#10254e;fill-opacity:1;fill-rule:nonzero;stroke:none"
       transform="matrix(1.3333333,0,0,-1.3333333,1428.574,1518.5389)"
       clip-path="url(#clipPath22)" />
    <path
       id="path23"
       d="m 0,0 c -2.817,0 -5.092,-0.866 -6.879,-2.708 -1.842,-1.788 -2.708,-4.063 -2.708,-6.879 v -115.318 c 0,-2.817 0.866,-5.091 2.708,-6.879 1.787,-1.841 4.062,-2.708 6.879,-2.708 2.763,0 5.037,0.867 6.771,2.708 1.678,1.788 2.545,4.062 2.545,6.879 V -9.587 c 0,2.816 -0.867,5.091 -2.545,6.879 C 5.037,-0.866 2.763,0 0,0"
       style="fill:#10254e;fill-opacity:1;fill-rule:nonzero;stroke:none"
       transform="matrix(1.3333333,0,0,-1.3333333,1529.3939,1393.8147)"
       clip-path="url(#clipPath24)" />
    <path
       id="path25"
       d="m 0,0 c 1.787,12.621 6.771,22.803 15.003,30.494 8.179,7.747 18.526,11.592 30.983,11.592 12.296,0 22.37,-3.845 30.224,-11.592 C 84.118,22.803 88.668,12.621 89.968,0 Z m 78.215,50.536 c -9.371,5.687 -20.096,8.503 -32.229,8.503 -12.457,0 -23.562,-2.925 -33.312,-8.719 -9.75,-5.851 -17.386,-13.921 -22.911,-24.375 -5.471,-10.4 -8.233,-22.208 -8.233,-35.532 0,-13.108 2.925,-24.863 8.721,-35.262 5.849,-10.4 13.919,-18.525 24.265,-24.374 10.291,-5.796 22.045,-8.721 35.154,-8.721 7.691,0 15.707,1.517 24.103,4.55 8.341,3.034 15.221,6.879 20.637,11.429 1.841,1.679 2.708,3.521 2.708,5.687 0,2.438 -1.083,4.658 -3.196,6.609 -1.787,1.299 -3.574,2.003 -5.417,2.003 -2.274,0 -4.495,-0.866 -6.607,-2.491 -3.629,-3.088 -8.396,-5.688 -14.408,-7.745 -5.959,-2.059 -11.917,-3.088 -17.82,-3.088 -13.759,0 -25.242,4.225 -34.45,12.567 -9.154,8.341 -14.407,19.281 -15.707,32.716 h 99.338 c 2.6,0 4.767,0.757 6.392,2.328 1.625,1.57 2.437,3.629 2.437,6.283 0,12.782 -2.545,24.157 -7.745,34.179 -5.146,9.965 -12.404,17.82 -21.72,23.453"
       style="fill:#10254e;fill-opacity:1;fill-rule:nonzero;stroke:none"
       transform="matrix(1.3333333,0,0,-1.3333333,1853.0117,1470.8729)"
       clip-path="url(#clipPath26)" />
    <path
       id="path27"
       d="m 0,0 c -4.008,1.788 -9.479,2.708 -16.357,2.708 -8.504,0 -16.467,-1.895 -23.833,-5.687 -7.421,-3.737 -13.487,-9.1 -18.2,-15.979 v 10.833 c 0,2.925 -0.866,5.254 -2.491,6.879 -1.625,1.626 -3.9,2.437 -6.879,2.437 -2.925,0 -5.254,-0.811 -6.879,-2.437 -1.625,-1.625 -2.438,-3.954 -2.438,-6.879 v -115.858 c 0,-2.925 0.813,-5.2 2.438,-6.879 1.625,-1.626 3.954,-2.439 6.879,-2.439 2.979,0 5.254,0.813 6.879,2.439 1.625,1.679 2.491,3.954 2.491,6.879 v 73.555 c 0,10.509 3.847,19.012 11.646,25.566 7.8,6.553 17.821,9.858 30.116,9.858 2.654,0 4.603,-0.108 5.903,-0.271 3.63,-0.325 6.176,-0.487 7.639,-0.487 2.491,0 4.387,0.433 5.794,1.246 1.409,0.812 2.384,2.383 3.088,4.658 0.163,0.488 0.217,1.245 0.217,2.221 C 6.013,-4.388 4.009,-1.842 0,0"
       style="fill:#10254e;fill-opacity:1;fill-rule:nonzero;stroke:none"
       transform="matrix(1.3333333,0,0,-1.3333333,2142.0359,1395.4033)"
       clip-path="url(#clipPath28)" />
    <path
       id="path29"
       d="m 0,0 c -2.091,0 -4.865,-0.937 -6.208,-5.365 l -10.524,-32.886 -8.615,33.691 c -0.389,1.337 -1.088,2.441 -2.081,3.273 C -28.448,-0.433 -29.73,0 -31.25,0 c -1.587,0 -2.901,-0.433 -3.922,-1.287 -0.993,-0.832 -1.692,-1.936 -2.081,-3.268 l -9.808,-33.158 -10.368,32.36 c -0.611,1.819 -1.387,3.128 -2.375,3.999 -1.015,0.899 -2.308,1.354 -3.833,1.354 -3.362,0 -5.215,-1.853 -5.215,-5.215 0,-1.115 0.155,-2.174 0.461,-3.173 L -53.019,-54.5 c 0.405,-1.137 1.16,-2.092 2.23,-2.841 2.136,-1.514 4.949,-1.52 7.107,-0.005 1.07,0.754 1.819,1.709 2.252,2.901 l 9.847,34.723 9.376,-34.723 c 0.333,-1.159 1.054,-2.136 2.147,-2.901 1.076,-0.755 2.307,-1.143 3.656,-1.143 1.292,0 2.474,0.388 3.511,1.154 1.032,0.749 1.764,1.703 2.18,2.852 L 4.632,-8.421 c 0.389,1.004 0.583,2.113 0.583,3.312 0,1.531 -0.45,2.779 -1.332,3.705 C 2.996,-0.471 1.686,0 0,0"
       style="fill:#f19122;fill-opacity:1;fill-rule:nonzero;stroke:none"
       transform="matrix(1.3333333,0,0,-1.3333333,622.976,1729.5872)"
       clip-path="url(#clipPath30)" />
    <path
       id="path31"
       d="m 0,0 c -2.663,-1.576 -5.709,-2.369 -9.065,-2.369 -3.356,0 -6.407,0.793 -9.07,2.369 -2.658,1.581 -4.766,3.795 -6.275,6.579 -1.514,2.796 -2.28,6.031 -2.28,9.609 0,3.584 0.766,6.835 2.28,9.67 1.515,2.823 3.623,5.053 6.275,6.624 2.663,1.575 5.714,2.368 9.07,2.368 3.356,0 6.408,-0.793 9.065,-2.368 C 2.646,30.911 4.743,28.687 6.219,25.863 7.706,23.017 8.455,19.766 8.455,16.188 8.455,12.615 7.706,9.381 6.219,6.574 4.749,3.789 2.652,1.576 0,0 m 6.041,42.107 c -4.427,2.513 -9.508,3.794 -15.106,3.794 -5.664,0 -10.796,-1.276 -15.261,-3.794 -4.483,-2.524 -8.011,-6.075 -10.502,-10.552 -2.486,-4.466 -3.745,-9.636 -3.745,-15.367 0,-5.664 1.259,-10.796 3.745,-15.256 2.491,-4.483 6.025,-8.033 10.502,-10.557 4.465,-2.519 9.597,-3.795 15.261,-3.795 5.659,0 10.779,1.282 15.212,3.795 4.443,2.524 7.955,6.08 10.44,10.557 2.486,4.46 3.745,9.592 3.745,15.256 0,5.731 -1.276,10.901 -3.794,15.367 -2.525,4.477 -6.053,8.028 -10.497,10.552"
       style="fill:#f19122;fill-opacity:1;fill-rule:nonzero;stroke:none"
       transform="matrix(1.3333333,0,0,-1.3333333,706.34613,1790.234)"
       clip-path="url(#clipPath32)" />
    <path
       id="path33"
       d="m 0,0 c -2.191,1.171 -5.22,1.764 -9.015,1.764 -3.567,0 -6.968,-0.727 -10.108,-2.158 -2.457,-1.115 -4.626,-2.568 -6.485,-4.349 -0.055,3.85 -2.141,5.88 -6.036,5.88 -1.892,0 -3.389,-0.538 -4.449,-1.597 -1.06,-1.06 -1.598,-2.558 -1.598,-4.444 v -46.401 c 0,-1.964 0.544,-3.478 1.609,-4.51 1.06,-1.015 2.552,-1.537 4.438,-1.537 1.959,0 3.473,0.544 4.505,1.609 1.015,1.06 1.537,2.552 1.537,4.438 v 30.307 c 0,3.628 1.381,6.43 4.227,8.56 2.879,2.158 6.757,3.251 11.528,3.251 1.659,0 3.883,-0.238 6.579,-0.71 0.738,-0.144 1.315,-0.222 1.726,-0.222 2.524,0 4.244,1.365 4.965,3.917 0.094,0.294 0.144,0.71 0.144,1.298 C 3.567,-2.912 2.363,-1.259 0,0"
       style="fill:#f19122;fill-opacity:1;fill-rule:nonzero;stroke:none"
       transform="matrix(1.3333333,0,0,-1.3333333,821.84827,1731.1035)"
       clip-path="url(#clipPath34)" />
    <path
       id="path35"
       d="m 0,0 18.463,16.454 c 1.309,1.066 1.975,2.475 1.975,4.194 0,1.471 -0.539,2.752 -1.543,3.756 -1.065,1.309 -2.474,1.975 -4.188,1.975 -1.476,0 -2.763,-0.538 -3.784,-1.564 L -12.882,3.551 v 40.348 c 0,1.753 -0.56,3.195 -1.653,4.282 -1.093,1.099 -2.535,1.659 -4.288,1.659 -1.753,0 -3.196,-0.56 -4.283,-1.653 -1.098,-1.093 -1.659,-2.535 -1.659,-4.288 V -27 c 0,-1.753 0.561,-3.196 1.653,-4.283 1.093,-1.099 2.536,-1.659 4.289,-1.659 1.753,0 3.195,0.56 4.283,1.653 1.098,1.093 1.658,2.536 1.658,4.289 v 15.5 l 4.228,3.722 19.156,-23.688 c 1.131,-1.459 2.613,-2.203 4.41,-2.203 1.37,0 2.669,0.483 3.867,1.448 1.448,1.199 2.18,2.713 2.18,4.494 0,1.459 -0.46,2.702 -1.337,3.65 z"
       style="fill:#f19122;fill-opacity:1;fill-rule:nonzero;stroke:none"
       transform="matrix(1.3333333,0,0,-1.3333333,891.2532,1763.6497)"
       clip-path="url(#clipPath36)" />
    <path
       id="path37"
       d="M 0,0 H -2.591 C -3.795,0 -4.782,0.677 -5.592,2.064 -6.48,3.589 -6.929,5.575 -6.929,7.972 v 56.675 c 0,1.753 -0.577,3.212 -1.703,4.344 -1.132,1.126 -2.591,1.703 -4.344,1.703 -1.753,0 -3.212,-0.577 -4.338,-1.703 -1.126,-1.132 -1.703,-2.591 -1.703,-4.344 V 7.972 c 0,-3.778 0.688,-7.229 2.047,-10.263 1.37,-3.068 3.339,-5.492 5.847,-7.207 2.519,-1.719 5.392,-2.59 8.738,-2.59 2.257,0 4.138,0.549 5.592,1.62 1.536,1.137 2.318,2.624 2.318,4.427 0,1.725 -0.51,3.167 -1.514,4.305 C 2.979,-0.588 1.631,0 0,0"
       style="fill:#f19122;fill-opacity:1;fill-rule:nonzero;stroke:none"
       transform="matrix(1.3333333,0,0,-1.3333333,1038.8873,1791.4545)"
       clip-path="url(#clipPath38)" />
    <path
       id="path39"
       d="m 0,0 c -1.747,0 -3.223,-0.571 -4.372,-1.692 -1.176,-1.132 -1.775,-2.63 -1.775,-4.455 v -46.195 c 0,-1.748 0.594,-3.223 1.759,-4.388 1.159,-1.165 2.635,-1.759 4.388,-1.759 1.825,0 3.329,0.594 4.46,1.77 1.121,1.165 1.692,2.641 1.692,4.377 v 46.195 c 0,1.82 -0.577,3.312 -1.703,4.444 C 3.318,-0.577 1.82,0 0,0"
       style="fill:#f19122;fill-opacity:1;fill-rule:nonzero;stroke:none"
       transform="matrix(1.3333333,0,0,-1.3333333,1086.7748,1729.5872)"
       clip-path="url(#clipPath40)" />
    <path
       id="path41"
       d="M 0,0 C -2.086,0 -3.911,-0.766 -5.431,-2.275 -6.935,-3.784 -7.7,-5.609 -7.7,-7.706 c 0,-2.097 0.765,-3.922 2.269,-5.431 1.509,-1.509 3.34,-2.274 5.431,-2.274 2.097,0 3.928,0.765 5.437,2.274 1.503,1.509 2.269,3.334 2.269,5.431 0,2.097 -0.766,3.922 -2.275,5.431 C 3.917,-0.766 2.091,0 0,0"
       style="fill:#f19122;fill-opacity:1;fill-rule:nonzero;stroke:none"
       transform="matrix(1.3333333,0,0,-1.3333333,1086.7748,1698.9936)"
       clip-path="url(#clipPath42)" />
    <path
       id="path43"
       d="M 0,0 C -1.62,0.81 -3.9,0.865 -5.731,-0.172 -6.679,-0.705 -7.406,-1.47 -7.911,-2.48 L -24.992,-39.727 -42.29,-2.452 c -0.482,0.971 -1.187,1.736 -2.091,2.269 -1.792,1.06 -3.967,0.971 -5.376,0.189 -2.247,-1.115 -3.384,-2.808 -3.384,-5.021 0,-0.821 0.172,-1.581 0.499,-2.236 l 22.019,-46.417 c 0.693,-1.392 1.465,-2.363 2.352,-2.968 0.899,-0.61 2.036,-0.926 3.39,-0.926 2.496,0 4.36,1.32 5.547,3.911 L 2.657,-7.267 c 0.405,0.804 0.616,1.597 0.616,2.357 0,1.066 -0.294,2.042 -0.871,2.913 C 1.831,-1.137 1.015,-0.46 0,0"
       style="fill:#f19122;fill-opacity:1;fill-rule:nonzero;stroke:none"
       transform="matrix(1.3333333,0,0,-1.3333333,1198.29,1730.6819)"
       clip-path="url(#clipPath44)" />
    <path
       id="path45"
       d="m 0,0 c 4.316,0 7.85,-1.315 10.513,-3.906 2.485,-2.429 4.099,-5.675 4.793,-9.647 h -32.531 c 0.887,3.961 2.735,7.19 5.486,9.62 C -8.76,-1.32 -4.815,0 0,0 M 14.252,6.979 C 10.258,9.403 5.459,10.635 0,10.635 c -5.526,0 -10.541,-1.282 -14.907,-3.8 -4.377,-2.53 -7.838,-6.097 -10.285,-10.613 -2.446,-4.494 -3.689,-9.642 -3.689,-15.3 0,-5.665 1.315,-10.796 3.905,-15.268 2.597,-4.477 6.247,-8.027 10.863,-10.551 4.604,-2.513 9.875,-3.789 15.672,-3.789 3.262,0 6.724,0.61 10.291,1.808 3.572,1.204 6.613,2.791 9.009,4.699 1.326,0.993 2.003,2.269 2.003,3.795 0,1.575 -0.732,2.984 -2.147,4.155 -0.921,0.838 -2.158,1.265 -3.689,1.265 -1.515,0 -2.841,-0.45 -3.939,-1.32 -1.381,-1.049 -3.168,-1.948 -5.315,-2.674 -2.152,-0.727 -4.244,-1.093 -6.213,-1.093 -5.037,0 -9.342,1.436 -12.799,4.271 -3.201,2.624 -5.259,6.053 -6.113,10.214 h 38.429 c 1.603,0 2.956,0.521 4.016,1.536 1.071,1.032 1.614,2.341 1.614,3.889 0,5.564 -1.081,10.58 -3.206,14.907 -2.136,4.349 -5.248,7.783 -9.248,10.213"
       style="fill:#f19122;fill-opacity:1;fill-rule:nonzero;stroke:none"
       transform="matrix(1.3333333,0,0,-1.3333333,1265.4611,1743.2121)"
       clip-path="url(#clipPath46)" />
    <path
       id="path47"
       d="m 0,0 c -2.191,1.171 -5.22,1.764 -9.015,1.764 -3.567,0 -6.968,-0.727 -10.108,-2.158 -2.457,-1.115 -4.627,-2.568 -6.485,-4.349 -0.055,3.85 -2.141,5.88 -6.036,5.88 -1.892,0 -3.389,-0.538 -4.449,-1.597 -1.06,-1.06 -1.598,-2.558 -1.598,-4.444 v -46.401 c 0,-1.964 0.544,-3.478 1.609,-4.51 1.06,-1.015 2.552,-1.537 4.438,-1.537 1.958,0 3.473,0.544 4.505,1.609 1.015,1.06 1.537,2.552 1.537,4.438 v 30.307 c 0,3.628 1.381,6.43 4.227,8.56 2.879,2.158 6.757,3.251 11.528,3.251 1.659,0 3.883,-0.238 6.579,-0.71 0.738,-0.144 1.315,-0.222 1.726,-0.222 2.524,0 4.244,1.365 4.965,3.917 0.094,0.294 0.144,0.71 0.144,1.298 C 3.567,-2.912 2.363,-1.259 0,0"
       style="fill:#f19122;fill-opacity:1;fill-rule:nonzero;stroke:none"
       transform="matrix(1.3333333,0,0,-1.3333333,1446.3368,1731.1035)"
       clip-path="url(#clipPath48)" />
    <path
       id="path49"
       d="m 0,0 c 4.316,0 7.85,-1.315 10.513,-3.906 2.485,-2.429 4.099,-5.675 4.793,-9.647 h -32.531 c 0.887,3.961 2.735,7.19 5.486,9.62 C -8.76,-1.32 -4.815,0 0,0 M 14.252,6.979 C 10.258,9.403 5.459,10.635 0,10.635 c -5.526,0 -10.541,-1.282 -14.907,-3.8 -4.377,-2.53 -7.838,-6.097 -10.285,-10.613 -2.446,-4.494 -3.689,-9.642 -3.689,-15.3 0,-5.665 1.315,-10.796 3.905,-15.268 2.597,-4.477 6.247,-8.027 10.863,-10.551 4.604,-2.513 9.875,-3.789 15.672,-3.789 3.262,0 6.724,0.61 10.291,1.808 3.572,1.204 6.613,2.791 9.009,4.699 1.326,0.993 2.003,2.269 2.003,3.795 0,1.575 -0.732,2.984 -2.147,4.155 -0.921,0.838 -2.158,1.265 -3.689,1.265 -1.515,0 -2.841,-0.45 -3.939,-1.32 -1.382,-1.049 -3.168,-1.948 -5.315,-2.674 -2.152,-0.727 -4.244,-1.093 -6.213,-1.093 -5.037,0 -9.342,1.436 -12.799,4.271 -3.201,2.624 -5.259,6.053 -6.113,10.214 h 38.428 c 1.604,0 2.957,0.521 4.017,1.536 1.071,1.032 1.614,2.341 1.614,3.889 0,5.564 -1.081,10.58 -3.206,14.907 -2.136,4.349 -5.248,7.783 -9.248,10.213"
       style="fill:#f19122;fill-opacity:1;fill-rule:nonzero;stroke:none"
       transform="matrix(1.3333333,0,0,-1.3333333,1511.8213,1743.2121)"
       clip-path="url(#clipPath50)" />
    <path
       id="path51"
       d="m 0,0 c -3.911,0 -7.523,-0.76 -10.74,-2.263 -2.868,-1.337 -5.343,-3.157 -7.368,-5.415 -1.78,2.319 -3.988,4.15 -6.579,5.453 -2.907,1.476 -6.23,2.225 -9.881,2.225 -2.99,0 -5.819,-0.527 -8.41,-1.57 -2.064,-0.827 -3.916,-1.936 -5.531,-3.295 -0.288,1.015 -0.81,1.886 -1.559,2.602 -1.131,1.087 -2.59,1.642 -4.327,1.642 -1.736,0 -3.212,-0.572 -4.382,-1.698 -1.171,-1.126 -1.765,-2.629 -1.765,-4.455 v -46.189 c 0,-1.759 0.594,-3.235 1.753,-4.394 1.171,-1.165 2.647,-1.759 4.394,-1.759 1.825,0 3.323,0.599 4.455,1.77 1.126,1.165 1.698,2.635 1.698,4.383 v 29.269 c 0,3.695 1.059,6.629 3.25,8.971 2.159,2.33 4.893,3.461 8.35,3.461 3.317,0 5.886,-0.982 7.85,-3.007 1.941,-2.008 2.923,-5.037 2.923,-9.009 v -29.685 c 0,-1.759 0.594,-3.235 1.753,-4.394 1.171,-1.165 2.647,-1.759 4.394,-1.759 1.825,0 3.323,0.599 4.449,1.77 1.126,1.154 1.698,2.63 1.698,4.383 v 29.269 c 0,3.639 1.093,6.657 3.245,8.971 2.169,2.33 4.871,3.461 8.255,3.461 3.318,0 5.886,-0.982 7.85,-3.007 1.942,-2.002 2.924,-5.037 2.924,-9.009 v -29.685 c 0,-1.759 0.593,-3.235 1.753,-4.394 1.17,-1.165 2.646,-1.759 4.393,-1.759 1.826,0 3.323,0.599 4.455,1.77 1.121,1.159 1.692,2.635 1.692,4.383 v 29.685 c 0,7.251 -1.947,13.004 -5.786,17.087 C 11.356,-2.086 6.235,0 0,0"
       style="fill:#f19122;fill-opacity:1;fill-rule:nonzero;stroke:none"
       transform="matrix(1.3333333,0,0,-1.3333333,1663.2427,1728.8919)"
       clip-path="url(#clipPath52)" />
    <path
       id="path53"
       d="m 0,0 c -2.663,-1.576 -5.708,-2.369 -9.065,-2.369 -3.356,0 -6.407,0.793 -9.07,2.369 -2.658,1.581 -4.766,3.795 -6.275,6.579 -1.514,2.796 -2.28,6.031 -2.28,9.609 0,3.584 0.766,6.835 2.28,9.67 1.515,2.823 3.623,5.053 6.275,6.624 2.663,1.575 5.714,2.368 9.07,2.368 3.357,0 6.408,-0.793 9.065,-2.368 C 2.646,30.911 4.743,28.687 6.219,25.863 7.706,23.017 8.455,19.766 8.455,16.188 8.455,12.615 7.706,9.381 6.219,6.574 4.749,3.789 2.652,1.576 0,0 m 6.041,42.107 c -4.427,2.513 -9.508,3.794 -15.106,3.794 -5.664,0 -10.796,-1.276 -15.261,-3.794 -4.483,-2.524 -8.011,-6.075 -10.502,-10.552 -2.485,-4.466 -3.745,-9.636 -3.745,-15.367 0,-5.664 1.26,-10.796 3.745,-15.256 2.491,-4.483 6.025,-8.033 10.502,-10.557 4.465,-2.519 9.597,-3.795 15.261,-3.795 5.659,0 10.779,1.282 15.212,3.795 4.443,2.524 7.955,6.08 10.441,10.557 2.485,4.46 3.744,9.592 3.744,15.256 0,5.731 -1.276,10.901 -3.794,15.367 -2.525,4.477 -6.053,8.028 -10.497,10.552"
       style="fill:#f19122;fill-opacity:1;fill-rule:nonzero;stroke:none"
       transform="matrix(1.3333333,0,0,-1.3333333,1779.2773,1790.234)"
       clip-path="url(#clipPath54)" />
    <path
       id="path55"
       d="m 0,0 h -3.528 c -1.959,0 -3.579,0.81 -4.949,2.485 -1.387,1.703 -2.086,3.867 -2.086,6.419 v 24.787 h 7.967 c 1.664,0 3.045,0.494 4.105,1.47 1.082,0.999 1.631,2.258 1.631,3.745 0,1.62 -0.549,2.951 -1.631,3.95 -1.06,0.976 -2.441,1.47 -4.105,1.47 h -7.967 v 14.096 c 0,1.742 -0.577,3.201 -1.703,4.339 -1.132,1.126 -2.591,1.703 -4.344,1.703 -1.753,0 -3.212,-0.577 -4.343,-1.709 -1.127,-1.132 -1.704,-2.591 -1.704,-4.333 V 44.326 h -3.916 c -1.67,0 -3.052,-0.494 -4.111,-1.47 -1.076,-0.999 -1.626,-2.325 -1.626,-3.95 0,-1.487 0.55,-2.746 1.626,-3.745 1.059,-0.976 2.441,-1.47 4.111,-1.47 h 3.916 V 8.904 c 0,-3.928 0.838,-7.517 2.491,-10.668 1.659,-3.168 3.972,-5.709 6.89,-7.545 2.93,-1.842 6.208,-2.779 9.748,-2.779 h 1.869 c 1.997,0 3.667,0.56 4.96,1.658 1.337,1.138 2.019,2.613 2.019,4.389 0,1.719 -0.51,3.167 -1.514,4.299 C 2.774,-0.588 1.498,0 0,0"
       style="fill:#f19122;fill-opacity:1;fill-rule:nonzero;stroke:none"
       transform="matrix(1.3333333,0,0,-1.3333333,1877.9147,1791.4545)"
       clip-path="url(#clipPath56)" />
    <path
       id="path57"
       d="m 0,0 c 4.316,0 7.85,-1.315 10.513,-3.906 2.485,-2.429 4.1,-5.675 4.793,-9.647 h -32.531 c 0.887,3.961 2.735,7.19 5.486,9.62 C -8.76,-1.32 -4.815,0 0,0 M 14.252,6.979 C 10.258,9.403 5.459,10.635 0,10.635 c -5.525,0 -10.541,-1.282 -14.906,-3.8 -4.378,-2.53 -7.839,-6.097 -10.286,-10.613 -2.446,-4.494 -3.689,-9.642 -3.689,-15.3 0,-5.665 1.315,-10.796 3.906,-15.268 2.596,-4.477 6.246,-8.027 10.862,-10.551 4.604,-2.513 9.875,-3.789 15.672,-3.789 3.262,0 6.724,0.61 10.291,1.808 3.572,1.204 6.613,2.791 9.009,4.699 1.326,0.993 2.003,2.269 2.003,3.795 0,1.575 -0.732,2.984 -2.147,4.155 -0.921,0.838 -2.158,1.265 -3.689,1.265 -1.515,0 -2.841,-0.45 -3.939,-1.32 -1.381,-1.049 -3.168,-1.948 -5.315,-2.674 -2.152,-0.727 -4.244,-1.093 -6.213,-1.093 -5.037,0 -9.342,1.436 -12.799,4.271 -3.201,2.624 -5.259,6.053 -6.113,10.214 h 38.429 c 1.603,0 2.956,0.521 4.016,1.536 1.071,1.032 1.614,2.341 1.614,3.889 0,5.564 -1.081,10.58 -3.206,14.907 -2.136,4.349 -5.248,7.783 -9.248,10.213"
       style="fill:#f19122;fill-opacity:1;fill-rule:nonzero;stroke:none"
       transform="matrix(1.3333333,0,0,-1.3333333,1954.0359,1743.2121)"
       clip-path="url(#clipPath58)" />
    <path
       id="path59"
       d="M 0,0 H -2.591 C -3.795,0 -4.782,0.677 -5.592,2.064 -6.48,3.589 -6.929,5.575 -6.929,7.972 v 56.675 c 0,1.753 -0.577,3.212 -1.703,4.344 -1.132,1.126 -2.591,1.703 -4.344,1.703 -1.753,0 -3.212,-0.577 -4.338,-1.703 -1.126,-1.132 -1.703,-2.591 -1.703,-4.344 V 7.972 c 0,-3.778 0.688,-7.229 2.047,-10.263 1.37,-3.068 3.339,-5.492 5.847,-7.207 2.519,-1.719 5.392,-2.59 8.738,-2.59 2.257,0 4.138,0.549 5.592,1.62 1.536,1.137 2.318,2.624 2.318,4.427 0,1.725 -0.51,3.167 -1.514,4.305 C 2.979,-0.588 1.631,0 0,0"
       style="fill:#f19122;fill-opacity:1;fill-rule:nonzero;stroke:none"
       transform="matrix(1.3333333,0,0,-1.3333333,2047.3179,1791.4545)"
       clip-path="url(#clipPath60)" />
    <path
       id="path61"
       d="m 0,0 c -0.871,0.394 -1.831,0.594 -2.84,0.594 -1.482,0 -3.523,-0.611 -4.827,-3.518 L -23.655,-38.961 -41.84,-2.785 c -1.121,2.241 -2.841,3.379 -5.121,3.379 -0.871,0 -1.686,-0.167 -2.43,-0.489 -1.032,-0.477 -1.875,-1.165 -2.513,-2.041 -0.66,-0.91 -0.998,-1.914 -0.998,-2.996 0,-0.971 0.216,-1.847 0.621,-2.58 l 23.161,-43.959 -10.191,-22.94 c -0.477,-0.948 -0.721,-1.914 -0.721,-2.873 0,-1.482 0.633,-3.523 3.639,-4.832 1.088,-0.466 2.014,-0.694 2.824,-0.694 1.542,0 3.634,0.655 4.827,3.728 L 3.023,-7.656 c 0.472,1.093 0.699,2.02 0.699,2.83 C 3.722,-3.284 3.068,-1.193 0,0"
       style="fill:#f19122;fill-opacity:1;fill-rule:nonzero;stroke:none"
       transform="matrix(1.3333333,0,0,-1.3333333,2145.0897,1730.3785)"
       clip-path="url(#clipPath62)" />
    <path
       id="path63"
       d="m 0,0 c 0,-125.557 -101.727,-227.352 -227.284,-227.352 -84.039,0 -157.397,45.591 -196.78,113.409 -15.82,27.168 -26.099,58.006 -29.37,90.914 4.873,-2.27 10.346,-3.538 16.087,-3.538 4.138,0 8.143,0.668 11.948,1.87 10.48,-10.28 25.899,-16.821 43.187,-16.821 14.552,0 27.835,4.672 37.915,12.281 10.145,-7.609 23.362,-12.281 37.914,-12.281 17.355,0 32.841,6.608 43.387,16.888 3.805,-1.202 7.877,-1.937 12.149,-1.937 21.827,0 39.516,17.689 39.516,39.516 0,21.828 -17.689,39.583 -39.516,39.583 -5.674,0 -11.014,-1.202 -15.82,-3.337 -6.808,18.556 -24.564,31.906 -45.523,31.906 -12.349,0 -23.563,-4.672 -32.107,-12.214 -8.544,7.542 -19.758,12.214 -32.107,12.214 -20.827,0 -38.582,-13.217 -45.391,-31.773 -4.805,2.069 -10.012,3.204 -15.552,3.204 -4.005,0 -7.943,-0.667 -11.615,-1.802 2.398,0.741 10.664,34.172 12.55,38.576 5.527,12.908 12.261,25.296 20.076,36.961 15.914,23.755 36.312,44.459 59.824,60.73 C -229.808,274.681 -48.905,208.422 -8.141,60.485 -2.718,40.807 0,20.409 0,0"
       style="fill:#f19122;fill-opacity:1;fill-rule:nonzero;stroke:none"
       transform="matrix(1.3333333,0,0,-1.3333333,1191.6247,1128.9157)"
       clip-path="url(#clipPath64)" />
    <path
       id="path65"
       d="m 0,0 c 0,0 -14.611,41.457 -57.404,37.396 -23.819,-2.262 -39.636,-25.691 -48.978,-46.023 -6.868,-14.948 -10.525,-31.08 -12.345,-47.429 -0.842,-7.578 -2.053,-15.236 -3.537,-22.933 -28.645,16.808 -74.639,29.699 -142.897,10.854 -131.946,-36.43 -193.447,18.017 -193.447,18.017 0,0 39.57141,-185.50133 249.77641,-188.90933 -5.79874,-28.36128 -44.01994,-35.06197 -44.01994,-35.06197 C 24.026698,-309.58404 -20.085,-65.15 -20.833,-38.266 -21.58,-11.381 23.333,-13.699 23.333,-13.699 15.433,-0.084 0,0 0,0"
       style="fill:#10254e;fill-opacity:1;fill-rule:nonzero;stroke:none"
       transform="matrix(1.3065048,-0.26612589,-0.26612589,-1.3065048,1176.7213,1060.7144)"
       clip-path="url(#clipPath66)" />
  </g>
</svg>
